<?xml version="1.0" encoding="UTF-8"?><svg version="1.1" id="information_x5F_security" xmlns="http://www.w3.org/2000/svg" xmlns:xlink="http://www.w3.org/1999/xlink" x="0px" y="0px" viewBox="0 0 120 111.999" style="enable-background:new 0 0 120 111.999;" xml:space="preserve" width="120px" height="112px">
<g>
	
		<linearGradient id="SVGID_1_" gradientUnits="userSpaceOnUse" x1="108.042" y1="327" x2="108.042" y2="301.2459" gradientTransform="matrix(1 0 0 -1 0 386)">
		<stop offset="0" style="stop-color:#F9CDAF"/>
		<stop offset="0.5359" style="stop-color:#F8CAAB"/>
		<stop offset="1" style="stop-color:#F7C4A1"/>
	</linearGradient>
	<path style="fill:url(#SVGID_1_);" d="M107.972,60H96.084v11.999c0,6.627,5.316,12,11.944,12S120,78.627,120,71.999
		S114.599,60,107.972,60z"/>
	
		<linearGradient id="SVGID_2_" gradientUnits="userSpaceOnUse" x1="108.042" y1="320" x2="108.042" y2="308.0727" gradientTransform="matrix(1 0 0 -1 0 386)">
		<stop offset="0" style="stop-color:#EFBC9A"/>
		<stop offset="0.7147" style="stop-color:#F3C09E"/>
		<stop offset="1" style="stop-color:#F7C4A1"/>
	</linearGradient>
	<path style="fill:url(#SVGID_2_);" d="M107.972,66h-5.888v5.999c0,3.314,2.63,6,5.944,6s5.972-2.686,5.972-6S111.285,66,107.972,66
		z"/>
	<path style="opacity:0.05;enable-background:new    ;" d="M113.972,72c0,0.34-0.02,0.68-0.1,1c-0.46-2.84-2.92-5-5.9-5h-5.888v-2
		h5.888C111.292,66,113.972,68.68,113.972,72z"/>
	
		<linearGradient id="SVGID_3_" gradientUnits="userSpaceOnUse" x1="12.042" y1="327" x2="12.042" y2="301.2459" gradientTransform="matrix(1 0 0 -1 0 386)">
		<stop offset="0" style="stop-color:#F9CDAF"/>
		<stop offset="0.5359" style="stop-color:#F8CAAB"/>
		<stop offset="1" style="stop-color:#F7C4A1"/>
	</linearGradient>
	<path style="fill:url(#SVGID_3_);" d="M11.972,60h12.112v11.999c0,6.627-5.429,12-12.056,12S0,78.627,0,71.999S5.344,60,11.972,60z
		"/>
	
		<linearGradient id="SVGID_4_" gradientUnits="userSpaceOnUse" x1="12.042" y1="320" x2="12.042" y2="308.0727" gradientTransform="matrix(1 0 0 -1 0 386)">
		<stop offset="0" style="stop-color:#EFBC9A"/>
		<stop offset="0.7147" style="stop-color:#F3C09E"/>
		<stop offset="1" style="stop-color:#F7C4A1"/>
	</linearGradient>
	<path style="fill:url(#SVGID_4_);" d="M11.972,66h6.112v5.999c0,3.314-2.742,6-6.056,6S6,75.313,6,71.999S8.658,66,11.972,66z"/>
	<path style="opacity:0.05;enable-background:new    ;" d="M5.972,72c0,0.34,0.02,0.68,0.1,1c0.46-2.84,2.92-5,5.9-5h6.112v-2
		h-6.112C8.652,66,5.972,68.68,5.972,72z"/>
	
		<linearGradient id="SVGID_5_" gradientUnits="userSpaceOnUse" x1="16.084" y1="314.0005" x2="104.084" y2="314.0005" gradientTransform="matrix(1 0 0 -1 0 386)">
		<stop offset="0" style="stop-color:#FFDEC7"/>
		<stop offset="1" style="stop-color:#FFD8BD"/>
	</linearGradient>
	<path style="fill:url(#SVGID_5_);" d="M104.084,32v35.999c0,24.3-19.7,44-44,44s-44-19.7-44-44V32H104.084z"/>
	
		<linearGradient id="SVGID_6_" gradientUnits="userSpaceOnUse" x1="16.084" y1="322" x2="104.084" y2="322" gradientTransform="matrix(1 0 0 -1 0 386)">
		<stop offset="0" style="stop-color:#575C72"/>
		<stop offset="0.4314" style="stop-color:#515569"/>
		<stop offset="1" style="stop-color:#434556"/>
	</linearGradient>
	<path style="fill:url(#SVGID_6_);" d="M104.084,52v15.999c0,2.74-0.352,6.001-0.852,8.001h-86.52c-0.5-2-0.628-5.261-0.628-8.001
		V52H104.084z"/>
	<circle style="fill:#FFFFFF;" cx="79.972" cy="63.999" r="8"/>
	<circle style="fill:#FFFFFF;" cx="39.972" cy="63.999" r="8"/>
	<path style="opacity:0.07;enable-background:new    ;" d="M64.084,72c0,2.209-1.791,4-4,4l0,0c-2.209,0-4-1.791-4-4v-2
		c0-2.209,1.791-4,4-4l0,0c2.209,0,4,1.791,4,4V72z"/>
	
		<linearGradient id="SVGID_7_" gradientUnits="userSpaceOnUse" x1="39.972" y1="326.001" x2="39.972" y2="317.8276" gradientTransform="matrix(1 0 0 -1 0 386)">
		<stop offset="0" style="stop-color:#4C4B4B"/>
		<stop offset="1" style="stop-color:#3A3838"/>
	</linearGradient>
	<path style="fill:url(#SVGID_7_);" d="M43.972,63.999c0,2.2-1.8,4-4,4s-4-1.8-4-4s1.8-4,4-4c0.4,0,0.78,0.06,1.14,0.16
		c-0.1,0.26-0.14,0.54-0.14,0.84C40.972,62.659,42.312,63.999,43.972,63.999z"/>
	
		<linearGradient id="SVGID_8_" gradientUnits="userSpaceOnUse" x1="79.972" y1="326.001" x2="79.972" y2="317.8276" gradientTransform="matrix(1 0 0 -1 0 386)">
		<stop offset="0" style="stop-color:#4C4B4B"/>
		<stop offset="1" style="stop-color:#3A3838"/>
	</linearGradient>
	<path style="fill:url(#SVGID_8_);" d="M83.972,63.999c0,2.2-1.8,4-4,4s-4-1.8-4-4s1.8-4,4-4c0.4,0,0.78,0.06,1.14,0.16
		c-0.1,0.26-0.14,0.54-0.14,0.84C80.972,62.659,82.312,63.999,83.972,63.999z"/>
	
		<linearGradient id="SVGID_9_" gradientUnits="userSpaceOnUse" x1="12.084" y1="348" x2="108.084" y2="348" gradientTransform="matrix(1 0 0 -1 0 386)">
		<stop offset="0" style="stop-color:#707E9B"/>
		<stop offset="0.1938" style="stop-color:#6A7792"/>
		<stop offset="0.5098" style="stop-color:#5B647A"/>
		<stop offset="0.9066" style="stop-color:#424652"/>
		<stop offset="1" style="stop-color:#3C3E48"/>
	</linearGradient>
	<path style="fill:url(#SVGID_9_);" d="M108.084,40c0,2.209-1.791,4-4,4h-88c-2.209,0-4-1.791-4-4v-4c0-2.209,1.791-4,4-4h88
		c2.209,0,4,1.791,4,4V40z"/>
	
		<linearGradient id="SVGID_10_" gradientUnits="userSpaceOnUse" x1="59.972" y1="304" x2="59.972" y2="286.6039" gradientTransform="matrix(1 0 0 -1 0 386)">
		<stop offset="0" style="stop-color:#FF6687"/>
		<stop offset="0.5013" style="stop-color:#F25D79"/>
		<stop offset="1" style="stop-color:#EA5770"/>
	</linearGradient>
	<path style="fill:url(#SVGID_10_);" d="M43.972,82c0,8,7.163,16,16,16s16-8,16-16H43.972z"/>
	<path style="fill:#FFFFFF;" d="M73.972,80h-28c-1.105,0-1.888,0.895-1.888,1.999V84h32v-2.001C76.084,80.895,75.076,80,73.972,80z"/>
	
		<linearGradient id="SVGID_11_" gradientUnits="userSpaceOnUse" x1="15.972" y1="370" x2="103.972" y2="370" gradientTransform="matrix(1 0 0 -1 0 386)">
		<stop offset="0" style="stop-color:#575C72"/>
		<stop offset="0.2957" style="stop-color:#52576C"/>
		<stop offset="0.6817" style="stop-color:#464A5C"/>
		<stop offset="1" style="stop-color:#373A49"/>
	</linearGradient>
	<path style="fill:url(#SVGID_11_);" d="M103.972,32h-88c0-2,0.08-2.68,0.26-4c1.96-15.78,15.42-28,31.74-28h24
		c8.84,0,16.84,3.58,22.64,9.36c4.9,4.92,8.22,11.4,9.12,18.64C103.892,29.32,103.972,30,103.972,32z"/>
	
		<linearGradient id="SVGID_12_" gradientUnits="userSpaceOnUse" x1="59.972" y1="389.2" x2="59.972" y2="354.3392" gradientTransform="matrix(1 0 0 -1 0 386)">
		<stop offset="0" style="stop-color:#000000;stop-opacity:0.4"/>
		<stop offset="0.29" style="stop-color:#090807;stop-opacity:0.284"/>
		<stop offset="0.7616" style="stop-color:#211C1A;stop-opacity:0.0954"/>
		<stop offset="1" style="stop-color:#302926;stop-opacity:0"/>
	</linearGradient>
	<path style="fill:url(#SVGID_12_);" d="M59.972,0c-27.68,0-28,32-28,32h4c0-2,0.112-26.461,22.112-27.929V32h4V4.071
		C84.084,5.543,83.97,30,83.972,32h4C87.972,32,87.651,0,59.972,0z"/>
	
		<linearGradient id="SVGID_13_" gradientUnits="userSpaceOnUse" x1="59.972" y1="354" x2="59.972" y2="357.75" gradientTransform="matrix(1 0 0 -1 0 386)">
		<stop offset="0" style="stop-color:#000000;stop-opacity:0.1"/>
		<stop offset="1" style="stop-color:#302926;stop-opacity:0"/>
	</linearGradient>
	<path style="fill:url(#SVGID_13_);" d="M103.972,32h-88c0-2,0.08-2,0.26-4h87.5C103.892,30,103.972,30,103.972,32z"/>
	
		<linearGradient id="SVGID_14_" gradientUnits="userSpaceOnUse" x1="60.084" y1="341.9167" x2="60.084" y2="337.9167" gradientTransform="matrix(1 0 0 -1 0 386)">
		<stop offset="0" style="stop-color:#4A0000;stop-opacity:0.1"/>
		<stop offset="1" style="stop-color:#A72F26;stop-opacity:0"/>
	</linearGradient>
	<rect x="16.084" y="44" style="fill:url(#SVGID_14_);" width="88" height="4"/>
</g>
</svg>