<?xml version="1.0" encoding="utf-8"?>
<!-- Generator: Adobe Illustrator 23.0.1, SVG Export Plug-In . SVG Version: 6.00 Build 0)  -->
<svg version="1.1" id="come_x5F_back_x5F_later" xmlns="http://www.w3.org/2000/svg" xmlns:xlink="http://www.w3.org/1999/xlink"
	 x="0px" y="0px" viewBox="0 0 72 83" style="enable-background:new 0 0 72 83;" xml:space="preserve">
<style type="text/css">
	.st0{fill:url(#SVGID_1_);}
	.st1{fill:url(#SVGID_2_);}
	.st2{fill:url(#SVGID_3_);}
	.st3{fill:url(#SVGID_4_);}
	.st4{fill:url(#SVGID_5_);}
	.st5{fill:url(#SVGID_6_);}
	.st6{fill:#DBAD8D;}
	.st7{fill:#FFFFFF;}
</style>
<g>
	
		<linearGradient id="SVGID_1_" gradientUnits="userSpaceOnUse" x1="35.9995" y1="540.2332" x2="35.9995" y2="574.5038" gradientTransform="matrix(1 0 0 1 0 -506.6633)">
		<stop  offset="0" style="stop-color:#AF6E52"/>
		<stop  offset="1" style="stop-color:#A5765D"/>
	</linearGradient>
	<path class="st0" d="M70,33.7v31c0,1.2-1.8,3.1-3,3.1H5c-1.2,0-3-1.8-3-3.1V34.6C2,16.7,16.2,1.3,34.2,0.5
		c4.4-0.2,9.2,0.5,13.1,1.9C60.2,6.9,70,19.2,70,33.7z"/>
	
		<linearGradient id="SVGID_2_" gradientUnits="userSpaceOnUse" x1="66" y1="545.7755" x2="66" y2="558.3154" gradientTransform="matrix(1 0 0 1 0 -506.6633)">
		<stop  offset="0" style="stop-color:#F9CDAF"/>
		<stop  offset="0.5359" style="stop-color:#F8CAAB"/>
		<stop  offset="1" style="stop-color:#F7C4A1"/>
	</linearGradient>
	<path class="st1" d="M66,51.8L66,51.8c-3.3,0-6-2.7-6-6v-6h6c3.3,0,6,2.7,6,6l0,0C72,49.1,69.3,51.8,66,51.8z"/>
	
		<linearGradient id="SVGID_3_" gradientUnits="userSpaceOnUse" x1="-552" y1="545.7755" x2="-552" y2="558.3154" gradientTransform="matrix(-1 0 0 1 -546 -506.6633)">
		<stop  offset="0" style="stop-color:#F9CDAF"/>
		<stop  offset="0.5359" style="stop-color:#F8CAAB"/>
		<stop  offset="1" style="stop-color:#F7C4A1"/>
	</linearGradient>
	<path class="st2" d="M6,51.8L6,51.8c3.3,0,6-2.7,6-6v-6H6c-3.3,0-6,2.7-6,6l0,0C0,49.1,2.7,51.8,6,51.8z"/>
	
		<linearGradient id="SVGID_4_" gradientUnits="userSpaceOnUse" x1="36" y1="529.1088" x2="36" y2="581.289" gradientTransform="matrix(1 0 0 1 0 -506.6633)">
		<stop  offset="0" style="stop-color:#FFDEC7"/>
		<stop  offset="0.6" style="stop-color:#FFD8BD"/>
		<stop  offset="1" style="stop-color:#FFC69F"/>
	</linearGradient>
	<path class="st3" d="M8,49.2c0,14.7,13.3,26.6,28,26.6s28-11.9,28-26.6V23.8H8V49.2z"/>
	
		<linearGradient id="SVGID_5_" gradientUnits="userSpaceOnUse" x1="46" y1="524.7933" x2="2.342" y2="524.7933" gradientTransform="matrix(1 0 0 1 0 -506.6633)">
		<stop  offset="0" style="stop-color:#AF6E52"/>
		<stop  offset="1" style="stop-color:#A5765D"/>
	</linearGradient>
	<path class="st4" d="M46,2.4v20.2c0,7.3-4.9,13.1-12.2,13.1H2v-2.1C2,15.4,16.7,0.5,35.1,0.5C38.9,0.5,44,1.1,46,2.4z"/>
	
		<linearGradient id="SVGID_6_" gradientUnits="userSpaceOnUse" x1="46" y1="525.7468" x2="70" y2="525.7468" gradientTransform="matrix(1 0 0 1 0 -506.6633)">
		<stop  offset="0" style="stop-color:#AF6E52"/>
		<stop  offset="1" style="stop-color:#A5765D"/>
	</linearGradient>
	<path class="st5" d="M70,33.7v2.1h-9.6C53,35.8,46,30,46,22.6V2.4C60,6.9,70,19.2,70,33.7z"/>
	<circle class="st6" cx="24.9" cy="47" r="4.4"/>
	<circle class="st6" cx="47.1" cy="47" r="4.4"/>
	<path class="st7" d="M30,58.1c0,3.7,2.3,6.6,6,6.6s6-3,6-6.6v-0.3H30V58.1z"/>
</g>
</svg>
