<svg xmlns="http://www.w3.org/2000/svg" xmlns:xlink="http://www.w3.org/1999/xlink" viewBox="0 0 72 83"><defs><style>.a{fill:url(#a);}.b{fill:url(#b);}.c{fill:url(#c);}.d{fill:url(#d);}.e{fill:url(#e);}.f{fill:url(#f);}.g{fill:#dbad8d;}.h{fill:#fff;}</style><linearGradient id="a" x1="35.999" y1="540.233" x2="35.999" y2="574.504" gradientTransform="translate(0 -506.663)" gradientUnits="userSpaceOnUse"><stop offset="0" stop-color="#af6e52"/><stop offset="1" stop-color="#a5765d"/></linearGradient><linearGradient id="b" x1="66" y1="545.776" x2="66" y2="558.315" gradientTransform="translate(0 -506.663)" gradientUnits="userSpaceOnUse"><stop offset="0" stop-color="#f9cdaf"/><stop offset="0.536" stop-color="#f8caab"/><stop offset="1" stop-color="#f7c4a1"/></linearGradient><linearGradient id="c" x1="-552" y1="545.776" x2="-552" y2="558.315" gradientTransform="matrix(-1, 0, 0, 1, -546, -506.663)" xlink:href="#b"/><linearGradient id="d" x1="36" y1="529.109" x2="36" y2="581.289" gradientTransform="translate(0 -506.663)" gradientUnits="userSpaceOnUse"><stop offset="0" stop-color="#ffdec7"/><stop offset="0.6" stop-color="#ffd8bd"/><stop offset="1" stop-color="#ffc69f"/></linearGradient><linearGradient id="e" x1="46" y1="524.793" x2="2.342" y2="524.793" xlink:href="#a"/><linearGradient id="f" x1="46" y1="525.747" x2="70" y2="525.747" xlink:href="#a"/></defs><title>head3</title><path class="a" d="M70,33.7v31a3.874,3.874,0,0,1-3,3.073H5a3.874,3.874,0,0,1-3-3.073V34.618C2,16.677,16.231,1.277,34.156.514A36.06,36.06,0,0,1,47.268,2.388C60.157,6.927,70,19.24,70,33.7Z"/><path class="b" d="M66,51.779h0a6,6,0,0,1-6-6v-6h6a6,6,0,0,1,6,6h0A6,6,0,0,1,66,51.779Z"/><path class="c" d="M6,51.779H6a6,6,0,0,0,6-6v-6H6a6,6,0,0,0-6,6H0A6,6,0,0,0,6,51.779Z"/><path class="d" d="M8,49.2C8,63.881,21.323,75.779,36,75.779S64,63.881,64,49.2V23.779H8Z"/><path class="e" d="M46,2.387V22.628c0,7.33-4.884,13.15-12.215,13.15H2V33.7A33.107,33.107,0,0,1,35.073.482C38.949.483,44,1.147,46,2.387Z"/><path class="f" d="M70,33.7v2.077H60.361c-7.33,0-14.361-5.82-14.361-13.15V2.388C60,6.927,70,19.24,70,33.7Z"/><circle class="g" cx="24.927" cy="46.989" r="4.429"/><circle class="g" cx="47.073" cy="46.989" r="4.429"/><path class="h" d="M30,58.063c0,3.669,2.331,6.643,6,6.643s6-2.975,6-6.644v-.283H30Z"/></svg>